<svg width="140" height="50" viewBox="0 0 140 50" fill="none" xmlns="http://www.w3.org/2000/svg">
<path d="M9.06991 24.4214C9.06991 16.3971 14.1667 10.466 21.7552 10.466C27.758 10.466 32.6283 14.1875 32.6283 17.9089C32.6283 19.4789 31.6089 20.5256 29.91 20.5256C25.776 20.5256 25.9459 12.8501 20.5093 12.8501C17.4513 12.8501 14.6764 15.9319 14.6764 20.8744C14.6764 28.6662 19.1502 33.7831 23.7939 33.7831C27.6448 33.7831 29.8534 30.9339 31.0426 28.8406C31.6656 28.0265 33.0247 28.2592 32.8548 29.4802C32.4584 34.4227 28.9473 39.0745 22.095 39.0745C14.8463 39.0745 9.06991 31.9805 9.06991 24.4214Z" fill="#FBFAF7"/>
<path d="M34.7237 38.028V37.8536C34.7237 36.8651 36.1961 36.5744 36.1961 34.8881V15.5832C36.1961 13.8388 34.7237 13.4318 34.7237 12.6177V12.4433C34.7237 12.0363 35.0069 11.8618 35.4599 11.6293L40.2735 9.18704C41.2929 8.66375 41.8592 9.24518 41.8592 9.88486V34.8299C41.8592 36.4581 43.5015 36.8069 43.5015 37.7955V37.9699C43.5015 38.3769 43.1051 38.6677 42.5954 38.6677H35.6298C35.0635 38.6677 34.7237 38.435 34.7237 38.028Z" fill="#FBFAF7"/>
<path d="M62.4726 33.1438C62.2461 35.4116 59.6411 39.0749 54.7142 39.0749C49.3909 39.0749 45.4834 35.1209 45.4834 29.0736C45.3702 23.8985 49.3343 19.5374 54.4311 19.4211C54.5443 19.4211 54.6576 19.4211 54.7142 19.4211C59.6977 19.4211 61.9629 22.3867 61.9629 25.0032C62.0196 26.1662 61.34 27.2129 60.264 27.6199L51.7694 31.5739C52.6189 33.6672 54.601 35.0046 56.8096 35.0046C58.5651 35.0627 60.2074 34.1905 61.1701 32.7368C61.6232 32.1554 62.4726 32.3298 62.4726 33.1438ZM50.7501 26.3988C50.7501 27.5617 50.8633 28.6666 51.1465 29.7713L56.0734 27.2129C56.7529 26.864 57.1493 26.108 57.0927 25.3522C57.0927 23.9566 56.0734 21.1655 54.0346 21.1655C51.9959 21.1655 50.7501 23.4332 50.7501 26.3988Z" fill="#FBFAF7"/>
<path d="M79.5751 23.0259C79.5751 24.654 78.9521 26.1077 77.1399 26.1077C74.1385 26.1077 75.4977 22.7351 73.4023 22.7351C71.9299 22.7351 71.3636 24.8866 71.3636 27.038V34.8878C71.3636 36.516 73.2891 36.8649 73.2891 37.8534V38.0278C73.2891 38.4929 72.9493 38.7256 72.4396 38.7256H65.4174C64.8511 38.7256 64.5113 38.4929 64.5113 38.0278V37.8534C64.5113 36.8649 65.9837 36.5741 65.9837 34.8878V25.7588C65.9837 24.0143 64.2282 23.898 64.2282 22.9096V22.7351C64.2282 22.328 64.5113 22.0373 65.021 21.8047L69.6081 19.5952C70.4575 19.1881 70.854 19.6533 70.854 20.4092V23.3747C71.7034 20.8744 73.5156 19.4789 76.064 19.4789C77.8761 19.3626 79.4618 20.8162 79.5751 22.677C79.5751 22.7933 79.5751 22.9096 79.5751 23.0259Z" fill="#FBFAF7"/>
<path d="M102.001 37.9117V38.028C102.001 38.4932 101.718 38.7257 101.208 38.7257H94.0731C93.6768 38.7839 93.3364 38.4932 93.3364 38.0861V38.028V37.9699C93.3364 36.9813 94.7519 36.7487 94.129 35.8183L89.9953 29.8293L87.7301 31.9807V34.9462C87.7301 36.5743 89.3724 36.9232 89.3724 37.9117V38.0861C89.3724 38.4932 89.0326 38.7839 88.4663 38.7839H81.4441C80.9344 38.7839 80.5946 38.4932 80.5946 38.0861V37.9117C80.5946 36.9232 82.067 36.6325 82.067 34.9462V15.5832C82.067 13.8388 80.3681 13.4317 80.3681 12.6177V12.4432C80.3681 12.0361 80.6513 11.8617 81.1609 11.6291L86.2577 9.187C87.1638 8.72175 87.7867 9.24514 87.7867 9.88472V28.957L93.8465 23.6075C94.9785 22.619 92.9401 21.6304 92.9401 20.7001V20.5257C92.9401 20.1187 93.2236 19.8279 93.7327 19.8279H99.1691C99.6223 19.8279 99.9627 20.0605 99.9627 20.4675V20.642C99.9627 21.6304 98.094 22.2701 96.6775 23.5494L93.563 26.5149L99.9627 35.7602C100.586 36.6325 102.001 36.9813 102.001 37.9117Z" fill="#FBFAF7"/>
<path d="M102.001 34.4812C102.001 32.9694 103.02 32.3298 104.266 32.3298C107.607 32.3298 106.304 37.5049 110.156 37.5049C111.741 37.5049 112.931 36.6909 112.931 34.8883C112.931 29.655 102.284 32.9112 102.284 25.1777C102.284 21.8633 105.455 19.4211 110.042 19.4211C114.856 19.4211 117.914 21.6888 117.914 24.1311C117.857 25.294 116.895 26.2243 115.819 26.1662C112.647 26.1662 113.78 21.0493 110.439 21.0493C109.08 20.9911 107.947 22.0959 107.947 23.4914C107.947 23.5496 107.947 23.6078 107.947 23.6659C107.947 29.0154 118.367 25.8755 118.367 33.3765C118.367 36.5746 115.309 39.0167 110.213 39.0167C105.228 39.0167 102.001 36.9234 102.001 34.4812Z" fill="#FBFAF7"/>
<path d="M140 20.468V20.6424C140 21.6309 138.811 21.9798 138.074 23.7242L130.826 39.8891C129.58 42.6802 126.409 49.5997 122.445 49.5997C118.99 49.5997 116.838 47.4483 116.838 45.4131C116.782 44.192 117.687 43.1454 118.877 43.0872C118.99 43.0872 119.047 43.0872 119.16 43.0872C122.274 43.0872 121.312 47.7971 123.294 47.7971C124.653 47.7971 127.371 42.5057 128.447 39.831L120.802 23.7242C119.953 21.9798 118.764 21.6309 118.764 20.6424V20.468C118.764 20.061 119.104 19.8283 119.556 19.8283H126.692C127.032 19.7701 127.371 20.061 127.428 20.468V20.5261V20.7005C127.428 21.6891 126.013 21.8054 126.862 23.8405L131.335 34.4815L135.47 24.4219C136.489 21.9798 133.771 21.6891 133.771 20.7587V20.5843C133.771 20.1773 134.054 19.8864 134.564 19.8864H139.207C139.661 19.8283 140 20.1191 140 20.468Z" fill="#FBFAF7"/>
<path d="M3.46372 21.8051C3.52036 21.8632 3.46372 21.9795 3.40709 22.0376C3.35046 22.0958 3.2372 22.0376 3.18057 21.9795C2.04796 20.3514 -0.160634 16.3393 0.00926597 9.65236C0.00926597 7.67529 0.405676 5.69831 1.14188 3.8376C1.76482 2.32578 3.46372 -0.174555 5.38917 0.639504C7.31456 1.45356 4.65297 4.47722 4.08666 5.34942C0.802086 10.4082 1.59492 16.3974 3.46372 21.8051Z" fill="#FDBC4E"/>
<path d="M4.53981 18.7233C4.53981 18.7815 4.48318 18.7815 4.42655 18.7815C4.36992 18.7815 4.36992 18.7233 4.36992 18.7233C4.1434 16.3393 4.03013 11.106 6.1821 6.51238C7.20146 4.24464 8.78706 2.26764 10.7692 0.813964C11.5054 0.290642 12.3549 -9.53674e-05 13.261 -9.53674e-05C14.337 0.116202 15.1864 1.1047 14.6767 2.2095C13.8839 3.89576 11.7319 4.12836 10.3728 5.175C8.61725 6.51239 7.37136 8.54752 6.52188 10.5826C5.50253 13.1412 4.82296 15.9322 4.53981 18.7233Z" fill="#FDBC4E"/>
<path d="M6.69179 17.502C6.69179 17.0368 6.74842 16.5717 6.86168 16.1646C7.31476 14.5365 7.93766 12.9665 8.78715 11.5128C11.0524 7.61697 14.337 4.18628 18.6975 3.13964C20 2.79076 24.2472 2.79076 22.8881 5.34923C21.982 6.97739 19.377 6.27958 17.9047 6.57032C15.0732 7.15182 12.8079 8.95437 10.8259 10.9895C8.67386 13.2572 6.80505 17.5601 6.69179 17.502Z" fill="#FDBC4E"/>
</svg>
